<svg width="219" height="174" viewBox="0 0 219 174" fill="none" xmlns="http://www.w3.org/2000/svg">
<mask id="mask0" mask-type="alpha" maskUnits="userSpaceOnUse" x="-181" y="-226" width="400" height="400">
<rect x="-181" y="-226" width="400" height="400" rx="200" fill="#C4C4C4"/>
</mask>
<g mask="url(#mask0)">
<path fill-rule="evenodd" clip-rule="evenodd" d="M-171.909 -4.81818C-166.888 -4.81818 -162.818 -8.88832 -162.818 -13.9091C-162.818 -18.9299 -166.888 -23 -171.909 -23C-176.93 -23 -181 -18.9299 -181 -13.9091C-181 -8.88832 -176.93 -4.81818 -171.909 -4.81818ZM-99.1818 -4.81818C-94.161 -4.81818 -90.0909 -8.88832 -90.0909 -13.9091C-90.0909 -18.9299 -94.161 -23 -99.1818 -23C-104.203 -23 -108.273 -18.9299 -108.273 -13.9091C-108.273 -8.88832 -104.203 -4.81818 -99.1818 -4.81818ZM-126.455 -13.9091C-126.455 -8.88832 -130.525 -4.81818 -135.545 -4.81818C-140.566 -4.81818 -144.636 -8.88832 -144.636 -13.9091C-144.636 -18.9299 -140.566 -23 -135.545 -23C-130.525 -23 -126.455 -18.9299 -126.455 -13.9091ZM-162.818 40.6364C-162.818 45.6572 -166.888 49.7273 -171.909 49.7273C-176.93 49.7273 -181 45.6572 -181 40.6364C-181 35.6156 -176.93 31.5455 -171.909 31.5455C-166.888 31.5455 -162.818 35.6156 -162.818 40.6364ZM-99.1818 49.7273C-94.161 49.7273 -90.0909 45.6572 -90.0909 40.6364C-90.0909 35.6156 -94.161 31.5455 -99.1818 31.5455C-104.203 31.5455 -108.273 35.6156 -108.273 40.6364C-108.273 45.6572 -104.203 49.7273 -99.1818 49.7273ZM-126.455 40.6364C-126.455 45.6572 -130.525 49.7273 -135.545 49.7273C-140.566 49.7273 -144.636 45.6572 -144.636 40.6364C-144.636 35.6156 -140.566 31.5455 -135.545 31.5455C-130.525 31.5455 -126.455 35.6156 -126.455 40.6364ZM-53.7272 -13.9091C-53.7272 -8.88832 -57.7974 -4.81818 -62.8181 -4.81818C-67.8389 -4.81818 -71.9091 -8.88832 -71.9091 -13.9091C-71.9091 -18.9299 -67.8389 -23 -62.8181 -23C-57.7974 -23 -53.7272 -18.9299 -53.7272 -13.9091ZM9.90909 -4.81818C14.9299 -4.81818 19 -8.88832 19 -13.9091C19 -18.9299 14.9299 -23 9.90909 -23C4.88832 -23 0.818176 -18.9299 0.818176 -13.9091C0.818176 -8.88832 4.88832 -4.81818 9.90909 -4.81818ZM-17.3636 -13.9091C-17.3636 -8.88832 -21.4338 -4.81818 -26.4546 -4.81818C-31.4753 -4.81818 -35.5455 -8.88832 -35.5455 -13.9091C-35.5455 -18.9299 -31.4753 -23 -26.4546 -23C-21.4338 -23 -17.3636 -18.9299 -17.3636 -13.9091ZM-162.818 13.0909C-162.818 18.1117 -166.888 22.1818 -171.909 22.1818C-176.93 22.1818 -181 18.1117 -181 13.0909C-181 8.07014 -176.93 4 -171.909 4C-166.888 4 -162.818 8.07014 -162.818 13.0909ZM-99.1818 22.1818C-94.161 22.1818 -90.0909 18.1117 -90.0909 13.0909C-90.0909 8.07014 -94.161 4 -99.1818 4C-104.203 4 -108.273 8.07014 -108.273 13.0909C-108.273 18.1117 -104.203 22.1818 -99.1818 22.1818ZM-126.455 13.0909C-126.455 18.1117 -130.525 22.1818 -135.545 22.1818C-140.566 22.1818 -144.636 18.1117 -144.636 13.0909C-144.636 8.07014 -140.566 4 -135.545 4C-130.525 4 -126.455 8.07014 -126.455 13.0909ZM-53.7272 13.0909C-53.7272 18.1117 -57.7974 22.1818 -62.8181 22.1818C-67.8389 22.1818 -71.9091 18.1117 -71.9091 13.0909C-71.9091 8.07014 -67.8389 4 -62.8181 4C-57.7974 4 -53.7272 8.07014 -53.7272 13.0909ZM9.90909 22.1818C14.9299 22.1818 19 18.1117 19 13.0909C19 8.07014 14.9299 4 9.90909 4C4.88832 4 0.818176 8.07014 0.818176 13.0909C0.818176 18.1117 4.88832 22.1818 9.90909 22.1818ZM-17.3636 13.0909C-17.3636 18.1117 -21.4338 22.1818 -26.4546 22.1818C-31.4753 22.1818 -35.5455 18.1117 -35.5455 13.0909C-35.5455 8.07014 -31.4753 4 -26.4546 4C-21.4338 4 -17.3636 8.07014 -17.3636 13.0909ZM-53.7272 40.6364C-53.7272 45.6572 -57.7974 49.7273 -62.8181 49.7273C-67.8389 49.7273 -71.9091 45.6572 -71.9091 40.6364C-71.9091 35.6156 -67.8389 31.5455 -62.8181 31.5455C-57.7974 31.5455 -53.7272 35.6156 -53.7272 40.6364ZM9.90909 49.7273C14.9299 49.7273 19 45.6572 19 40.6364C19 35.6156 14.9299 31.5455 9.90909 31.5455C4.88832 31.5455 0.818176 35.6156 0.818176 40.6364C0.818176 45.6572 4.88832 49.7273 9.90909 49.7273ZM-17.3636 40.6364C-17.3636 45.6572 -21.4338 49.7273 -26.4546 49.7273C-31.4753 49.7273 -35.5455 45.6572 -35.5455 40.6364C-35.5455 35.6156 -31.4753 31.5455 -26.4546 31.5455C-21.4338 31.5455 -17.3636 35.6156 -17.3636 40.6364Z" fill="#256CDA" fill-opacity="0.17"/>
<path fill-rule="evenodd" clip-rule="evenodd" d="M-171.909 82.1818C-166.888 82.1818 -162.818 78.1117 -162.818 73.0909C-162.818 68.0701 -166.888 64 -171.909 64C-176.93 64 -181 68.0701 -181 73.0909C-181 78.1117 -176.93 82.1818 -171.909 82.1818ZM-99.1818 82.1818C-94.161 82.1818 -90.0909 78.1117 -90.0909 73.0909C-90.0909 68.0701 -94.161 64 -99.1818 64C-104.203 64 -108.273 68.0701 -108.273 73.0909C-108.273 78.1117 -104.203 82.1818 -99.1818 82.1818ZM-126.455 73.0909C-126.455 78.1117 -130.525 82.1818 -135.545 82.1818C-140.566 82.1818 -144.636 78.1117 -144.636 73.0909C-144.636 68.0701 -140.566 64 -135.545 64C-130.525 64 -126.455 68.0701 -126.455 73.0909ZM-162.818 127.636C-162.818 132.657 -166.888 136.727 -171.909 136.727C-176.93 136.727 -181 132.657 -181 127.636C-181 122.616 -176.93 118.545 -171.909 118.545C-166.888 118.545 -162.818 122.616 -162.818 127.636ZM-99.1818 136.727C-94.161 136.727 -90.0909 132.657 -90.0909 127.636C-90.0909 122.616 -94.161 118.545 -99.1818 118.545C-104.203 118.545 -108.273 122.616 -108.273 127.636C-108.273 132.657 -104.203 136.727 -99.1818 136.727ZM-126.455 127.636C-126.455 132.657 -130.525 136.727 -135.545 136.727C-140.566 136.727 -144.636 132.657 -144.636 127.636C-144.636 122.616 -140.566 118.545 -135.545 118.545C-130.525 118.545 -126.455 122.616 -126.455 127.636ZM-53.7272 73.0909C-53.7272 78.1117 -57.7974 82.1818 -62.8181 82.1818C-67.8389 82.1818 -71.9091 78.1117 -71.9091 73.0909C-71.9091 68.0701 -67.8389 64 -62.8181 64C-57.7974 64 -53.7272 68.0701 -53.7272 73.0909ZM9.90909 82.1818C14.9299 82.1818 19 78.1117 19 73.0909C19 68.0701 14.9299 64 9.90909 64C4.88832 64 0.818176 68.0701 0.818176 73.0909C0.818176 78.1117 4.88832 82.1818 9.90909 82.1818ZM-17.3636 73.0909C-17.3636 78.1117 -21.4338 82.1818 -26.4546 82.1818C-31.4753 82.1818 -35.5455 78.1117 -35.5455 73.0909C-35.5455 68.0701 -31.4753 64 -26.4546 64C-21.4338 64 -17.3636 68.0701 -17.3636 73.0909ZM-162.818 100.091C-162.818 105.112 -166.888 109.182 -171.909 109.182C-176.93 109.182 -181 105.112 -181 100.091C-181 95.0701 -176.93 91 -171.909 91C-166.888 91 -162.818 95.0701 -162.818 100.091ZM-99.1818 109.182C-94.161 109.182 -90.0909 105.112 -90.0909 100.091C-90.0909 95.0701 -94.161 91 -99.1818 91C-104.203 91 -108.273 95.0701 -108.273 100.091C-108.273 105.112 -104.203 109.182 -99.1818 109.182ZM-126.455 100.091C-126.455 105.112 -130.525 109.182 -135.545 109.182C-140.566 109.182 -144.636 105.112 -144.636 100.091C-144.636 95.0701 -140.566 91 -135.545 91C-130.525 91 -126.455 95.0701 -126.455 100.091ZM-53.7272 100.091C-53.7272 105.112 -57.7974 109.182 -62.8181 109.182C-67.8389 109.182 -71.9091 105.112 -71.9091 100.091C-71.9091 95.0701 -67.8389 91 -62.8181 91C-57.7974 91 -53.7272 95.0701 -53.7272 100.091ZM9.90909 109.182C14.9299 109.182 19 105.112 19 100.091C19 95.0701 14.9299 91 9.90909 91C4.88832 91 0.818176 95.0701 0.818176 100.091C0.818176 105.112 4.88832 109.182 9.90909 109.182ZM-17.3636 100.091C-17.3636 105.112 -21.4338 109.182 -26.4546 109.182C-31.4753 109.182 -35.5455 105.112 -35.5455 100.091C-35.5455 95.0701 -31.4753 91 -26.4546 91C-21.4338 91 -17.3636 95.0701 -17.3636 100.091ZM-53.7272 127.636C-53.7272 132.657 -57.7974 136.727 -62.8181 136.727C-67.8389 136.727 -71.9091 132.657 -71.9091 127.636C-71.9091 122.616 -67.8389 118.545 -62.8181 118.545C-57.7974 118.545 -53.7272 122.616 -53.7272 127.636ZM9.90909 136.727C14.9299 136.727 19 132.657 19 127.636C19 122.616 14.9299 118.545 9.90909 118.545C4.88832 118.545 0.818176 122.616 0.818176 127.636C0.818176 132.657 4.88832 136.727 9.90909 136.727ZM-17.3636 127.636C-17.3636 132.657 -21.4338 136.727 -26.4546 136.727C-31.4753 136.727 -35.5455 132.657 -35.5455 127.636C-35.5455 122.616 -31.4753 118.545 -26.4546 118.545C-21.4338 118.545 -17.3636 122.616 -17.3636 127.636Z" fill="#256CDA" fill-opacity="0.17"/>
<path fill-rule="evenodd" clip-rule="evenodd" d="M45.0909 -0.818182C50.1117 -0.818182 54.1818 -4.88832 54.1818 -9.90909C54.1818 -14.9299 50.1117 -19 45.0909 -19C40.0701 -19 36 -14.9299 36 -9.90909C36 -4.88832 40.0701 -0.818182 45.0909 -0.818182ZM117.818 -0.818182C122.839 -0.818182 126.909 -4.88832 126.909 -9.90909C126.909 -14.9299 122.839 -19 117.818 -19C112.797 -19 108.727 -14.9299 108.727 -9.90909C108.727 -4.88832 112.797 -0.818182 117.818 -0.818182ZM90.5455 -9.90909C90.5455 -4.88832 86.4753 -0.818182 81.4546 -0.818182C76.4338 -0.818182 72.3636 -4.88832 72.3636 -9.90909C72.3636 -14.9299 76.4338 -19 81.4546 -19C86.4753 -19 90.5455 -14.9299 90.5455 -9.90909ZM54.1818 44.6364C54.1818 49.6572 50.1117 53.7273 45.0909 53.7273C40.0701 53.7273 36 49.6572 36 44.6364C36 39.6156 40.0701 35.5455 45.0909 35.5455C50.1117 35.5455 54.1818 39.6156 54.1818 44.6364ZM117.818 53.7273C122.839 53.7273 126.909 49.6572 126.909 44.6364C126.909 39.6156 122.839 35.5455 117.818 35.5455C112.797 35.5455 108.727 39.6156 108.727 44.6364C108.727 49.6572 112.797 53.7273 117.818 53.7273ZM90.5455 44.6364C90.5455 49.6572 86.4753 53.7273 81.4546 53.7273C76.4338 53.7273 72.3636 49.6572 72.3636 44.6364C72.3636 39.6156 76.4338 35.5455 81.4546 35.5455C86.4753 35.5455 90.5455 39.6156 90.5455 44.6364ZM163.273 -9.90909C163.273 -4.88832 159.203 -0.818182 154.182 -0.818182C149.161 -0.818182 145.091 -4.88832 145.091 -9.90909C145.091 -14.9299 149.161 -19 154.182 -19C159.203 -19 163.273 -14.9299 163.273 -9.90909ZM226.909 -0.818182C231.93 -0.818182 236 -4.88832 236 -9.90909C236 -14.9299 231.93 -19 226.909 -19C221.888 -19 217.818 -14.9299 217.818 -9.90909C217.818 -4.88832 221.888 -0.818182 226.909 -0.818182ZM199.636 -9.90909C199.636 -4.88832 195.566 -0.818182 190.545 -0.818182C185.525 -0.818182 181.455 -4.88832 181.455 -9.90909C181.455 -14.9299 185.525 -19 190.545 -19C195.566 -19 199.636 -14.9299 199.636 -9.90909ZM54.1818 17.0909C54.1818 22.1117 50.1117 26.1818 45.0909 26.1818C40.0701 26.1818 36 22.1117 36 17.0909C36 12.0701 40.0701 8 45.0909 8C50.1117 8 54.1818 12.0701 54.1818 17.0909ZM117.818 26.1818C122.839 26.1818 126.909 22.1117 126.909 17.0909C126.909 12.0701 122.839 8 117.818 8C112.797 8 108.727 12.0701 108.727 17.0909C108.727 22.1117 112.797 26.1818 117.818 26.1818ZM90.5455 17.0909C90.5455 22.1117 86.4753 26.1818 81.4546 26.1818C76.4338 26.1818 72.3636 22.1117 72.3636 17.0909C72.3636 12.0701 76.4338 8 81.4546 8C86.4753 8 90.5455 12.0701 90.5455 17.0909ZM163.273 17.0909C163.273 22.1117 159.203 26.1818 154.182 26.1818C149.161 26.1818 145.091 22.1117 145.091 17.0909C145.091 12.0701 149.161 8 154.182 8C159.203 8 163.273 12.0701 163.273 17.0909ZM226.909 26.1818C231.93 26.1818 236 22.1117 236 17.0909C236 12.0701 231.93 8 226.909 8C221.888 8 217.818 12.0701 217.818 17.0909C217.818 22.1117 221.888 26.1818 226.909 26.1818ZM199.636 17.0909C199.636 22.1117 195.566 26.1818 190.545 26.1818C185.525 26.1818 181.455 22.1117 181.455 17.0909C181.455 12.0701 185.525 8 190.545 8C195.566 8 199.636 12.0701 199.636 17.0909ZM163.273 44.6364C163.273 49.6572 159.203 53.7273 154.182 53.7273C149.161 53.7273 145.091 49.6572 145.091 44.6364C145.091 39.6156 149.161 35.5455 154.182 35.5455C159.203 35.5455 163.273 39.6156 163.273 44.6364ZM226.909 53.7273C231.93 53.7273 236 49.6572 236 44.6364C236 39.6156 231.93 35.5455 226.909 35.5455C221.888 35.5455 217.818 39.6156 217.818 44.6364C217.818 49.6572 221.888 53.7273 226.909 53.7273ZM199.636 44.6364C199.636 49.6572 195.566 53.7273 190.545 53.7273C185.525 53.7273 181.455 49.6572 181.455 44.6364C181.455 39.6156 185.525 35.5455 190.545 35.5455C195.566 35.5455 199.636 39.6156 199.636 44.6364Z" fill="#256CDA" fill-opacity="0.17"/>
<path fill-rule="evenodd" clip-rule="evenodd" d="M45.0909 86.1818C50.1117 86.1818 54.1818 82.1117 54.1818 77.0909C54.1818 72.0701 50.1117 68 45.0909 68C40.0701 68 36 72.0701 36 77.0909C36 82.1117 40.0701 86.1818 45.0909 86.1818ZM117.818 86.1818C122.839 86.1818 126.909 82.1117 126.909 77.0909C126.909 72.0701 122.839 68 117.818 68C112.797 68 108.727 72.0701 108.727 77.0909C108.727 82.1117 112.797 86.1818 117.818 86.1818ZM90.5455 77.0909C90.5455 82.1117 86.4753 86.1818 81.4546 86.1818C76.4338 86.1818 72.3636 82.1117 72.3636 77.0909C72.3636 72.0701 76.4338 68 81.4546 68C86.4753 68 90.5455 72.0701 90.5455 77.0909ZM54.1818 131.636C54.1818 136.657 50.1117 140.727 45.0909 140.727C40.0701 140.727 36 136.657 36 131.636C36 126.616 40.0701 122.545 45.0909 122.545C50.1117 122.545 54.1818 126.616 54.1818 131.636ZM117.818 140.727C122.839 140.727 126.909 136.657 126.909 131.636C126.909 126.616 122.839 122.545 117.818 122.545C112.797 122.545 108.727 126.616 108.727 131.636C108.727 136.657 112.797 140.727 117.818 140.727ZM90.5455 131.636C90.5455 136.657 86.4753 140.727 81.4546 140.727C76.4338 140.727 72.3636 136.657 72.3636 131.636C72.3636 126.616 76.4338 122.545 81.4546 122.545C86.4753 122.545 90.5455 126.616 90.5455 131.636ZM163.273 77.0909C163.273 82.1117 159.203 86.1818 154.182 86.1818C149.161 86.1818 145.091 82.1117 145.091 77.0909C145.091 72.0701 149.161 68 154.182 68C159.203 68 163.273 72.0701 163.273 77.0909ZM226.909 86.1818C231.93 86.1818 236 82.1117 236 77.0909C236 72.0701 231.93 68 226.909 68C221.888 68 217.818 72.0701 217.818 77.0909C217.818 82.1117 221.888 86.1818 226.909 86.1818ZM199.636 77.0909C199.636 82.1117 195.566 86.1818 190.545 86.1818C185.525 86.1818 181.455 82.1117 181.455 77.0909C181.455 72.0701 185.525 68 190.545 68C195.566 68 199.636 72.0701 199.636 77.0909ZM54.1818 104.091C54.1818 109.112 50.1117 113.182 45.0909 113.182C40.0701 113.182 36 109.112 36 104.091C36 99.0701 40.0701 95 45.0909 95C50.1117 95 54.1818 99.0701 54.1818 104.091ZM117.818 113.182C122.839 113.182 126.909 109.112 126.909 104.091C126.909 99.0701 122.839 95 117.818 95C112.797 95 108.727 99.0701 108.727 104.091C108.727 109.112 112.797 113.182 117.818 113.182ZM90.5455 104.091C90.5455 109.112 86.4753 113.182 81.4546 113.182C76.4338 113.182 72.3636 109.112 72.3636 104.091C72.3636 99.0701 76.4338 95 81.4546 95C86.4753 95 90.5455 99.0701 90.5455 104.091ZM163.273 104.091C163.273 109.112 159.203 113.182 154.182 113.182C149.161 113.182 145.091 109.112 145.091 104.091C145.091 99.0701 149.161 95 154.182 95C159.203 95 163.273 99.0701 163.273 104.091ZM226.909 113.182C231.93 113.182 236 109.112 236 104.091C236 99.0701 231.93 95 226.909 95C221.888 95 217.818 99.0701 217.818 104.091C217.818 109.112 221.888 113.182 226.909 113.182ZM199.636 104.091C199.636 109.112 195.566 113.182 190.545 113.182C185.525 113.182 181.455 109.112 181.455 104.091C181.455 99.0701 185.525 95 190.545 95C195.566 95 199.636 99.0701 199.636 104.091ZM163.273 131.636C163.273 136.657 159.203 140.727 154.182 140.727C149.161 140.727 145.091 136.657 145.091 131.636C145.091 126.616 149.161 122.545 154.182 122.545C159.203 122.545 163.273 126.616 163.273 131.636ZM226.909 140.727C231.93 140.727 236 136.657 236 131.636C236 126.616 231.93 122.545 226.909 122.545C221.888 122.545 217.818 126.616 217.818 131.636C217.818 136.657 221.888 140.727 226.909 140.727ZM199.636 131.636C199.636 136.657 195.566 140.727 190.545 140.727C185.525 140.727 181.455 136.657 181.455 131.636C181.455 126.616 185.525 122.545 190.545 122.545C195.566 122.545 199.636 126.616 199.636 131.636Z" fill="#256CDA" fill-opacity="0.17"/>
<path fill-rule="evenodd" clip-rule="evenodd" d="M-71.9091 169.182C-66.8883 169.182 -62.8182 165.112 -62.8182 160.091C-62.8182 155.07 -66.8883 151 -71.9091 151C-76.9299 151 -81 155.07 -81 160.091C-81 165.112 -76.9299 169.182 -71.9091 169.182ZM0.818207 169.182C5.83897 169.182 9.90911 165.112 9.90911 160.091C9.90911 155.07 5.83897 151 0.818207 151C-4.20257 151 -8.27271 155.07 -8.27271 160.091C-8.27271 165.112 -4.20257 169.182 0.818207 169.182ZM-26.4545 160.091C-26.4545 165.112 -30.5247 169.182 -35.5454 169.182C-40.5662 169.182 -44.6364 165.112 -44.6364 160.091C-44.6364 155.07 -40.5662 151 -35.5454 151C-30.5247 151 -26.4545 155.07 -26.4545 160.091ZM-62.8182 214.636C-62.8182 219.657 -66.8883 223.727 -71.9091 223.727C-76.9299 223.727 -81 219.657 -81 214.636C-81 209.616 -76.9299 205.545 -71.9091 205.545C-66.8883 205.545 -62.8182 209.616 -62.8182 214.636ZM0.818207 223.727C5.83897 223.727 9.90911 219.657 9.90911 214.636C9.90911 209.616 5.83897 205.545 0.818207 205.545C-4.20257 205.545 -8.27271 209.616 -8.27271 214.636C-8.27271 219.657 -4.20257 223.727 0.818207 223.727ZM-26.4545 214.636C-26.4545 219.657 -30.5247 223.727 -35.5454 223.727C-40.5662 223.727 -44.6364 219.657 -44.6364 214.636C-44.6364 209.616 -40.5662 205.545 -35.5454 205.545C-30.5247 205.545 -26.4545 209.616 -26.4545 214.636ZM46.2728 160.091C46.2728 165.112 42.2026 169.182 37.1819 169.182C32.1611 169.182 28.0909 165.112 28.0909 160.091C28.0909 155.07 32.1611 151 37.1819 151C42.2026 151 46.2728 155.07 46.2728 160.091ZM109.909 169.182C114.93 169.182 119 165.112 119 160.091C119 155.07 114.93 151 109.909 151C104.888 151 100.818 155.07 100.818 160.091C100.818 165.112 104.888 169.182 109.909 169.182ZM82.6364 160.091C82.6364 165.112 78.5662 169.182 73.5454 169.182C68.5247 169.182 64.4545 165.112 64.4545 160.091C64.4545 155.07 68.5247 151 73.5454 151C78.5662 151 82.6364 155.07 82.6364 160.091ZM-62.8182 187.091C-62.8182 192.112 -66.8883 196.182 -71.9091 196.182C-76.9299 196.182 -81 192.112 -81 187.091C-81 182.07 -76.9299 178 -71.9091 178C-66.8883 178 -62.8182 182.07 -62.8182 187.091ZM0.818207 196.182C5.83897 196.182 9.90911 192.112 9.90911 187.091C9.90911 182.07 5.83897 178 0.818207 178C-4.20257 178 -8.27271 182.07 -8.27271 187.091C-8.27271 192.112 -4.20257 196.182 0.818207 196.182ZM-26.4545 187.091C-26.4545 192.112 -30.5247 196.182 -35.5454 196.182C-40.5662 196.182 -44.6364 192.112 -44.6364 187.091C-44.6364 182.07 -40.5662 178 -35.5454 178C-30.5247 178 -26.4545 182.07 -26.4545 187.091ZM46.2728 187.091C46.2728 192.112 42.2026 196.182 37.1819 196.182C32.1611 196.182 28.0909 192.112 28.0909 187.091C28.0909 182.07 32.1611 178 37.1819 178C42.2026 178 46.2728 182.07 46.2728 187.091ZM109.909 196.182C114.93 196.182 119 192.112 119 187.091C119 182.07 114.93 178 109.909 178C104.888 178 100.818 182.07 100.818 187.091C100.818 192.112 104.888 196.182 109.909 196.182ZM82.6364 187.091C82.6364 192.112 78.5662 196.182 73.5454 196.182C68.5247 196.182 64.4545 192.112 64.4545 187.091C64.4545 182.07 68.5247 178 73.5454 178C78.5662 178 82.6364 182.07 82.6364 187.091ZM46.2728 214.636C46.2728 219.657 42.2026 223.727 37.1819 223.727C32.1611 223.727 28.0909 219.657 28.0909 214.636C28.0909 209.616 32.1611 205.545 37.1819 205.545C42.2026 205.545 46.2728 209.616 46.2728 214.636ZM109.909 223.727C114.93 223.727 119 219.657 119 214.636C119 209.616 114.93 205.545 109.909 205.545C104.888 205.545 100.818 209.616 100.818 214.636C100.818 219.657 104.888 223.727 109.909 223.727ZM82.6364 214.636C82.6364 219.657 78.5662 223.727 73.5454 223.727C68.5247 223.727 64.4545 219.657 64.4545 214.636C64.4545 209.616 68.5247 205.545 73.5454 205.545C78.5662 205.545 82.6364 209.616 82.6364 214.636Z" fill="#256CDA" fill-opacity="0.17"/>
</g>
</svg>
